<?xml version="1.0" encoding="UTF-8"?>
<!DOCTYPE svg PUBLIC "-//W3C//DTD SVG 1.1//EN" "http://www.w3.org/Graphics/SVG/1.1/DTD/svg11.dtd">
<svg xmlns="http://www.w3.org/2000/svg" version="1.1" width="600px" height="337px" style="shape-rendering:geometricPrecision; text-rendering:geometricPrecision; image-rendering:optimizeQuality; fill-rule:evenodd; clip-rule:evenodd" xmlns:xlink="http://www.w3.org/1999/xlink">
<g><path style="opacity:1" fill="#12b8fc" d="M 51.5,132.5 C 59.0986,132.592 62.5986,136.258 62,143.5C 59.0487,150.577 55.2154,157.077 50.5,163C 56.1626,168.799 60.9959,175.299 65,182.5C 66.2206,187.97 64.0539,191.47 58.5,193C 56.5,193.667 54.5,193.667 52.5,193C 48.7127,187.544 44.546,182.377 40,177.5C 39.845,182.943 38.6783,188.109 36.5,193C 29.8851,196.671 24.0518,195.838 19,190.5C 18.3426,173.162 18.0093,155.829 18,138.5C 18.5743,136.508 19.741,135.008 21.5,134C 35.3628,130.861 41.1962,136.361 39,150.5C 41.5995,144.911 44.5995,139.577 48,134.5C 49.3024,133.915 50.469,133.249 51.5,132.5 Z"/></g>
<g><path style="opacity:1" fill="#28e829" d="M 276.5,146.5 C 270.158,146.334 263.825,146.5 257.5,147C 256.183,149.937 256.183,152.77 257.5,155.5C 267.781,154.631 271.115,159.131 267.5,169C 263.934,170.285 260.434,170.785 257,170.5C 256.333,173.167 256.333,175.833 257,178.5C 257.383,179.056 257.883,179.389 258.5,179.5C 264.665,180.103 270.998,180.27 277.5,180C 277.167,180.333 276.833,180.667 276.5,181C 279.055,182.258 279.722,184.091 278.5,186.5C 273.454,184.018 273.287,184.685 278,188.5C 278.749,189.635 278.583,190.635 277.5,191.5C 276.281,190.737 275.281,189.737 274.5,188.5C 272.027,190.098 272.027,191.598 274.5,193C 265.173,193.5 255.839,193.666 246.5,193.5C 242.411,193.412 239.744,191.412 238.5,187.5C 237.284,171.513 237.284,155.513 238.5,139.5C 238.84,136.325 240.507,134.159 243.5,133C 254.618,130.735 265.618,131.068 276.5,134C 278.235,135.182 279.235,136.849 279.5,139C 278.873,141.135 278.373,143.302 278,145.5C 277.617,146.056 277.117,146.389 276.5,146.5 Z"/></g>
<g><path style="opacity:1" fill="#74c0f4" d="M 484.5,133.5 C 493.9,133.114 503.234,133.614 512.5,135C 524.358,140.2 528.192,149.034 524,161.5C 521.424,165.745 517.924,168.912 513.5,171C 517.119,175.074 520.619,179.241 524,183.5C 524.978,186.669 524.478,189.503 522.5,192C 518.329,195.856 513.996,196.189 509.5,193C 505.298,189.133 501.465,184.967 498,180.5C 498.058,193.797 492.058,197.797 480,192.5C 478.378,176.234 478.045,159.9 479,143.5C 479.049,139.06 480.882,135.727 484.5,133.5 Z M 497.5,148.5 C 501.273,148.263 504.94,148.763 508.5,150C 512.466,152.285 512.466,154.618 508.5,157C 504.855,157.719 501.188,158.219 497.5,158.5C 497.5,155.167 497.5,151.833 497.5,148.5 Z"/></g>
<g><path style="opacity:1" fill="#bd639e" d="M 538.5,186.5 C 537.985,175.674 537.318,165.007 536.5,154.5C 536.977,148.044 538.144,141.71 540,135.5C 541.419,134.54 542.919,133.707 544.5,133C 555.602,130.673 566.602,131.007 577.5,134C 579.981,138.023 580.148,142.189 578,146.5C 577.25,147.126 576.416,147.626 575.5,148C 569.584,147.982 563.751,148.148 558,148.5C 557.333,150.833 557.333,153.167 558,155.5C 565.155,154.423 568.988,157.423 569.5,164.5C 569.61,166.374 568.944,167.874 567.5,169C 564.502,170.344 561.502,170.511 558.5,169.5C 556.319,172.263 555.985,175.263 557.5,178.5C 564.807,179.004 572.14,179.171 579.5,179C 581.942,183.052 582.109,187.219 580,191.5C 578.829,192.893 577.329,193.727 575.5,194C 563.959,196.291 552.625,195.624 541.5,192C 539.84,190.512 538.84,188.679 538.5,186.5 Z"/></g>
<g><path style="opacity:1" fill="#f48fcf" d="M 90.5,194.5 C 86.7786,194.191 83.2786,193.191 80,191.5C 78.9199,172.796 78.7532,154.129 79.5,135.5C 79.9175,134.778 80.5842,134.278 81.5,134C 85.5,133.333 89.5,133.333 93.5,134C 95,134.833 96.1667,136 97,137.5C 98.4872,154.808 98.8205,172.142 98,189.5C 96.5897,192.789 94.0897,194.456 90.5,194.5 Z"/></g>
<g><path style="opacity:1" fill="#ec392c" d="M 115.5,133.5 C 119.637,133.146 123.637,133.646 127.5,135C 132.297,140.768 136.464,146.935 140,153.5C 140.333,148.167 140.667,142.833 141,137.5C 141.465,136.069 142.299,134.903 143.5,134C 148.167,133.333 152.833,133.333 157.5,134C 158.333,134.833 159.167,135.667 160,136.5C 161.101,142.589 161.601,148.755 161.5,155C 161.274,165.846 160.774,176.679 160,187.5C 159.654,189.848 158.487,191.681 156.5,193C 148.809,194.736 142.976,192.236 139,185.5C 136.333,180.167 133.667,174.833 131,169.5C 130.667,176.5 130.333,183.5 130,190.5C 127.521,192.917 124.521,193.917 121,193.5C 116.869,194.1 113.536,192.766 111,189.5C 110.229,172.478 110.562,155.478 112,138.5C 112.697,136.416 113.864,134.749 115.5,133.5 Z"/></g>
<g><path style="opacity:1" fill="#ec88c5" d="M 298.5,133.5 C 306.507,133.334 314.507,133.5 322.5,134C 339.069,139.393 343.235,149.893 335,165.5C 332.766,167.7 330.266,169.533 327.5,171C 331,175.167 334.5,179.333 338,183.5C 338.53,190.162 335.363,194.162 328.5,195.5C 321.604,192.107 316.104,187.107 312,180.5C 312.004,193.821 306.004,197.821 294,192.5C 292.362,175.258 292.029,157.925 293,140.5C 293.938,137.402 295.772,135.069 298.5,133.5 Z M 311.5,148.5 C 315.675,148.188 319.675,148.855 323.5,150.5C 324.91,152.949 324.576,155.116 322.5,157C 318.823,157.718 315.157,158.051 311.5,158C 310.208,154.835 310.208,151.668 311.5,148.5 Z"/></g>
<g><path style="opacity:1" fill="#fc164c" d="M 377.5,133.5 C 385.573,132.935 393.239,134.435 400.5,138C 405.916,143.229 405.583,148.229 399.5,153C 395.105,153.263 390.772,152.763 386.5,151.5C 373.501,153.347 368.668,160.681 372,173.5C 374.929,177.215 378.762,179.215 383.5,179.5C 388.061,178.73 392.561,177.73 397,176.5C 403.583,177.316 405.917,180.983 404,187.5C 402.378,189.906 400.211,191.739 397.5,193C 383.844,196.449 371.178,194.449 359.5,187C 349.29,175.265 347.79,162.432 355,148.5C 360.97,141.105 368.47,136.105 377.5,133.5 Z"/></g>
<g><path style="opacity:1" fill="#fb790b" d="M 438.5,133.5 C 450.687,132.007 458.854,137.007 463,148.5C 465.98,161.002 467.313,173.669 467,186.5C 464.27,193.053 459.437,195.22 452.5,193C 451.667,192.167 450.833,191.333 450,190.5C 449.821,187.447 449.321,184.447 448.5,181.5C 444.61,179.946 440.943,180.279 437.5,182.5C 435.055,196.474 428.222,199.14 417,190.5C 415.165,173.833 418.165,158.167 426,143.5C 429.512,139.134 433.679,135.801 438.5,133.5 Z M 444.5,151.5 C 445.794,152.29 446.961,153.29 448,154.5C 449.266,158.395 449.766,162.395 449.5,166.5C 445.5,166.5 441.5,166.5 437.5,166.5C 438.015,160.479 440.348,155.479 444.5,151.5 Z"/></g>
<g><path style="opacity:1" fill="#fac10b" d="M 200.5,192.5 C 193.132,192.683 185.799,192.35 178.5,191.5C 176.496,190.327 174.996,188.66 174,186.5C 172.138,172.155 172.138,157.822 174,143.5C 174.883,140.898 176.383,138.731 178.5,137C 198.43,130.924 213.596,136.758 224,154.5C 224.667,160.833 224.667,167.167 224,173.5C 220.153,184.684 212.32,191.017 200.5,192.5 Z M 193.5,149.5 C 208.84,152.179 213.006,160.512 206,174.5C 202.346,178.416 198.012,179.416 193,177.5C 190.84,168.063 191.007,158.73 193.5,149.5 Z"/></g>
<g><path style="opacity:0.702" fill="#b38eb2" d="M 79.5,135.5 C 78.7532,154.129 78.9199,172.796 80,191.5C 83.2786,193.191 86.7786,194.191 90.5,194.5C 86.5522,195.568 82.7189,194.901 79,192.5C 78.6667,191.167 78.3333,189.833 78,188.5C 77.3333,171.167 77.3333,153.833 78,136.5C 78.3826,135.944 78.8826,135.611 79.5,135.5 Z"/></g>
<g><path style="opacity:0.898" fill="#6dcc4d" d="M 276.5,146.5 C 274.71,147.997 272.544,148.664 270,148.5C 266.173,147.761 262.34,147.594 258.5,148C 257.565,150.381 257.232,152.881 257.5,155.5C 256.183,152.77 256.183,149.937 257.5,147C 263.825,146.5 270.158,146.334 276.5,146.5 Z"/></g>
<g><path style="opacity:0.322" fill="#7bce42" d="M 238.5,139.5 C 237.284,155.513 237.284,171.513 238.5,187.5C 237.778,187.082 237.278,186.416 237,185.5C 236.333,171.833 236.333,158.167 237,144.5C 237.198,142.618 237.698,140.952 238.5,139.5 Z"/></g>
<g><path style="opacity:0.122" fill="#a092b4" d="M 536.5,154.5 C 537.318,165.007 537.985,175.674 538.5,186.5C 537.71,185.391 537.21,184.058 537,182.5C 536.5,173.173 536.334,163.839 536.5,154.5 Z"/></g>
<g><path style="opacity:1" fill="#57d93b" d="M 246.5,193.5 C 255.839,193.666 265.173,193.5 274.5,193C 272.027,191.598 272.027,190.098 274.5,188.5C 275.281,189.737 276.281,190.737 277.5,191.5C 278.583,190.635 278.749,189.635 278,188.5C 273.287,184.685 273.454,184.018 278.5,186.5C 279.722,184.091 279.055,182.258 276.5,181C 276.833,180.667 277.167,180.333 277.5,180C 270.998,180.27 264.665,180.103 258.5,179.5C 265.164,178.878 271.831,178.712 278.5,179C 280.996,183.323 281.162,187.823 279,192.5C 268.175,196.093 257.342,196.427 246.5,193.5 Z"/></g>
<g><path style="opacity:0.114" fill="#ec7e38" d="M 178.5,191.5 C 185.799,192.35 193.132,192.683 200.5,192.5C 194.347,193.653 188.014,193.82 181.5,193C 180.263,192.768 179.263,192.268 178.5,191.5 Z"/></g>
</svg>
